<?xml version="1.0" encoding="UTF-8" standalone="no"?>
<!-- Created with Inkscape (http://www.inkscape.org/) -->

<svg
   width="144.51541mm"
   height="101.59999mm"
   viewBox="0 0 144.51541 101.59999"
   version="1.1"
   id="svg5"
   xml:space="preserve"
   sodipodi:docname="/tmp/ink_ext_XXXXXX.svg7SEGK2"
   xmlns:inkscape="http://www.inkscape.org/namespaces/inkscape"
   xmlns:sodipodi="http://sodipodi.sourceforge.net/DTD/sodipodi-0.dtd"
   xmlns="http://www.w3.org/2000/svg"
   xmlns:svg="http://www.w3.org/2000/svg"><sodipodi:namedview
     id="namedview7"
     pagecolor="#ffffff"
     bordercolor="#000000"
     borderopacity="0.25"
     inkscape:showpageshadow="2"
     inkscape:pageopacity="0.0"
     inkscape:pagecheckerboard="0"
     inkscape:deskcolor="#d1d1d1"
     inkscape:document-units="mm"
     showgrid="false"
     inkscape:zoom="0.52221046"
     inkscape:cx="193.40861"
     inkscape:cy="517.03292"
     inkscape:window-width="1920"
     inkscape:window-height="995"
     inkscape:window-x="0"
     inkscape:window-y="0"
     inkscape:window-maximized="1"
     inkscape:current-layer="layer1" /><defs
     id="defs2"><clipPath
       id="clipPath3711">
      <path
   d="M 0,0 H 4.980469 V 6.421875 H 0 Z m 0,0"
   id="path4033" />
    </clipPath></defs><g
     inkscape:label="Katman 1"
     inkscape:groupmode="layer"
     id="layer1"
     transform="translate(-32.510327,-33.937057)"><path
       d="m 174.00949,49.838511 c -1.66688,-6.27062 -6.56167,-11.19187 -12.77938,-12.85875 -11.27125,-3.042707 -56.46208,-3.042707 -56.46208,-3.042707 0,0 -45.190828,0 -56.462078,3.042707 -6.217709,1.66688 -11.1125,6.58813 -12.779375,12.85875 -3.01625,11.35063 -3.01625,35.004384 -3.01625,35.004384 0,0 0,23.653745 3.01625,35.004365 1.666875,6.27063 6.561666,10.98021 12.779375,12.64708 11.27125,3.04271 56.462078,3.04271 56.462078,3.04271 0,0 45.19083,0 56.46208,-3.04271 6.21771,-1.66687 11.1125,-6.40291 12.77938,-12.64708 3.01625,-11.35062 3.01625,-35.004365 3.01625,-35.004365 0,0 0,-23.653754 -3.01625,-35.004384 z M 90.004285,106.32705 V 63.358725 l 37.756045,21.48417 z"
       id="path222"
       style="fill:#ff2a2a;stroke-width:0.264583"
       inkscape:export-filename="4.svg"
       inkscape:export-xdpi="96"
       inkscape:export-ydpi="96" /><g
       inkscape:label=""
       transform="matrix(11.528146,0,0,11.528146,96.697826,70.781312)"
       id="g522"><g
   id="g520"
   transform="matrix(0.352778,0,0,0.352778,-0.176389,0.0778316)">
    <g
   clip-path="url(#clipPath3711)"
   clip-rule="nonzero"
   id="g518">
      <g
   style="fill:#000000;fill-opacity:1"
   id="g516">
        <g
   id="g514"
   transform="translate(0,6.4200001)">
          <path
   style="stroke:none"
   d="m 4.46875,-2 c 0,-1.1875 -0.8125,-2.1875 -1.890625,-2.1875 -0.46875,0 -0.90625,0.15625 -1.265625,0.515625 V -5.625 c 0.203125,0.0625 0.53125,0.125 0.84375,0.125 1.234375,0 1.9375,-0.90625 1.9375,-1.03125 0,-0.0625 -0.03125,-0.109375 -0.109375,-0.109375 0,0 -0.03125,0 -0.078125,0.03125 C 3.703125,-6.515625 3.21875,-6.3125 2.546875,-6.3125 2.15625,-6.3125 1.6875,-6.390625 1.21875,-6.59375 1.140625,-6.625 1.125,-6.625 1.109375,-6.625 1,-6.625 1,-6.546875 1,-6.390625 V -3.4375 c 0,0.171875 0,0.25 0.140625,0.25 0.078125,0 0.09375,-0.015625 0.140625,-0.078125 C 1.390625,-3.421875 1.75,-3.96875 2.5625,-3.96875 c 0.515625,0 0.765625,0.453125 0.84375,0.640625 0.15625,0.375 0.1875,0.75 0.1875,1.25 0,0.359375 0,0.953125 -0.25,1.375 C 3.109375,-0.3125 2.734375,-0.0625 2.28125,-0.0625 c -0.71875,0 -1.296875,-0.53125 -1.46875,-1.109375 0.03125,0 0.0625,0.015625 0.171875,0.015625 0.328125,0 0.5,-0.25 0.5,-0.484375 0,-0.25 -0.171875,-0.5 -0.5,-0.5 C 0.84375,-2.140625 0.5,-2.0625 0.5,-1.609375 0.5,-0.75 1.1875,0.21875 2.296875,0.21875 3.453125,0.21875 4.46875,-0.734375 4.46875,-2 Z m 0,0"
   id="path512" />
        </g>
      </g>
    </g>
  </g>
</g></g></svg>
