<?xml version="1.0" encoding="UTF-8" standalone="no"?>
<!-- Created with Inkscape (http://www.inkscape.org/) -->

<svg
   width="144.51541mm"
   height="101.59999mm"
   viewBox="0 0 144.51541 101.59999"
   version="1.1"
   id="svg5"
   xml:space="preserve"
   sodipodi:docname="/tmp/ink_ext_XXXXXX.svg7SEGK2"
   xmlns:inkscape="http://www.inkscape.org/namespaces/inkscape"
   xmlns:sodipodi="http://sodipodi.sourceforge.net/DTD/sodipodi-0.dtd"
   xmlns="http://www.w3.org/2000/svg"
   xmlns:svg="http://www.w3.org/2000/svg"><sodipodi:namedview
     id="namedview7"
     pagecolor="#ffffff"
     bordercolor="#000000"
     borderopacity="0.25"
     inkscape:showpageshadow="2"
     inkscape:pageopacity="0.0"
     inkscape:pagecheckerboard="0"
     inkscape:deskcolor="#d1d1d1"
     inkscape:document-units="mm"
     showgrid="false"
     inkscape:zoom="0.52221046"
     inkscape:cx="193.40861"
     inkscape:cy="517.03292"
     inkscape:window-width="1920"
     inkscape:window-height="995"
     inkscape:window-x="0"
     inkscape:window-y="0"
     inkscape:window-maximized="1"
     inkscape:current-layer="layer1" /><defs
     id="defs2"><clipPath
       id="clipPath335">
      <path
   d="M 0,0 H 4.980469 V 6.421875 H 0 Z m 0,0"
   id="path8021" />
    </clipPath></defs><g
     inkscape:label="Katman 1"
     inkscape:groupmode="layer"
     id="layer1"
     transform="translate(-32.510327,-33.937057)"><path
       d="m 174.00949,49.838511 c -1.66688,-6.27062 -6.56167,-11.19187 -12.77938,-12.85875 -11.27125,-3.042707 -56.46208,-3.042707 -56.46208,-3.042707 0,0 -45.190828,0 -56.462078,3.042707 -6.217709,1.66688 -11.1125,6.58813 -12.779375,12.85875 -3.01625,11.35063 -3.01625,35.004384 -3.01625,35.004384 0,0 0,23.653745 3.01625,35.004365 1.666875,6.27063 6.561666,10.98021 12.779375,12.64708 11.27125,3.04271 56.462078,3.04271 56.462078,3.04271 0,0 45.19083,0 56.46208,-3.04271 6.21771,-1.66687 11.1125,-6.40291 12.77938,-12.64708 3.01625,-11.35062 3.01625,-35.004365 3.01625,-35.004365 0,0 0,-23.653754 -3.01625,-35.004384 z M 90.004285,106.32705 V 63.358725 l 37.756045,21.48417 z"
       id="path222"
       style="fill:#ff2a2a;stroke-width:0.264583"
       inkscape:export-filename="5.svg"
       inkscape:export-xdpi="96"
       inkscape:export-ydpi="96" /><g
       inkscape:label=""
       transform="matrix(12.019799,0,0,12.019799,95.989242,70.186127)"
       id="g602"><g
   id="g600"
   transform="matrix(0.352778,0,0,0.352778,-0.148828,0.0778316)">
    <g
   clip-path="url(#clipPath335)"
   clip-rule="nonzero"
   id="g598">
      <g
   style="fill:#000000;fill-opacity:1"
   id="g596">
        <g
   id="g594"
   transform="translate(0,6.4200001)">
          <path
   style="stroke:none"
   d="m 1.3125,-3.265625 v -0.25 c 0,-2.515625 1.234375,-2.875 1.75,-2.875 0.234375,0 0.65625,0.0625 0.875,0.40625 -0.15625,0 -0.546875,0 -0.546875,0.4375 0,0.3125 0.234375,0.46875 0.453125,0.46875 0.15625,0 0.46875,-0.09375 0.46875,-0.484375 0,-0.59375 -0.4375,-1.078125 -1.265625,-1.078125 -1.28125,0 -2.625,1.28125 -2.625,3.484375 0,2.671875 1.15625,3.375 2.078125,3.375 1.109375,0 2.0625,-0.9375 2.0625,-2.25 0,-1.265625 -0.890625,-2.21875 -2,-2.21875 -0.671875,0 -1.046875,0.5 -1.25,0.984375 z M 2.5,-0.0625 c -0.625,0 -0.921875,-0.59375 -0.984375,-0.75 -0.1875,-0.46875 -0.1875,-1.265625 -0.1875,-1.4375 0,-0.78125 0.328125,-1.78125 1.21875,-1.78125 0.171875,0 0.625,0 0.9375,0.625 0.171875,0.359375 0.171875,0.875 0.171875,1.359375 0,0.484375 0,0.984375 -0.171875,1.34375 C 3.1875,-0.109375 2.734375,-0.0625 2.5,-0.0625 Z m 0,0"
   id="path592" />
        </g>
      </g>
    </g>
  </g>
</g></g></svg>
