<?xml version="1.0" encoding="UTF-8" standalone="no"?>
<!-- Created with Inkscape (http://www.inkscape.org/) -->

<svg
   width="144.51541mm"
   height="101.59999mm"
   viewBox="0 0 144.51541 101.59999"
   version="1.1"
   id="svg5"
   xml:space="preserve"
   sodipodi:docname="/tmp/ink_ext_XXXXXX.svg7SEGK2"
   xmlns:inkscape="http://www.inkscape.org/namespaces/inkscape"
   xmlns:sodipodi="http://sodipodi.sourceforge.net/DTD/sodipodi-0.dtd"
   xmlns="http://www.w3.org/2000/svg"
   xmlns:svg="http://www.w3.org/2000/svg"><sodipodi:namedview
     id="namedview7"
     pagecolor="#ffffff"
     bordercolor="#000000"
     borderopacity="0.25"
     inkscape:showpageshadow="2"
     inkscape:pageopacity="0.0"
     inkscape:pagecheckerboard="0"
     inkscape:deskcolor="#d1d1d1"
     inkscape:document-units="mm"
     showgrid="false"
     inkscape:zoom="0.52221046"
     inkscape:cx="193.40861"
     inkscape:cy="517.03292"
     inkscape:window-width="1920"
     inkscape:window-height="995"
     inkscape:window-x="0"
     inkscape:window-y="0"
     inkscape:window-maximized="1"
     inkscape:current-layer="layer1" /><defs
     id="defs2"><clipPath
       id="clipPath5812">
      <path
   d="M 0,0 H 4.980469 V 6.421875 H 0 Z m 0,0"
   id="path4496" />
    </clipPath></defs><g
     inkscape:label="Katman 1"
     inkscape:groupmode="layer"
     id="layer1"
     transform="translate(-32.510327,-33.937057)"><path
       d="m 174.00949,49.838511 c -1.66688,-6.27062 -6.56167,-11.19187 -12.77938,-12.85875 -11.27125,-3.042707 -56.46208,-3.042707 -56.46208,-3.042707 0,0 -45.190828,0 -56.462078,3.042707 -6.217709,1.66688 -11.1125,6.58813 -12.779375,12.85875 -3.01625,11.35063 -3.01625,35.004384 -3.01625,35.004384 0,0 0,23.653745 3.01625,35.004365 1.666875,6.27063 6.561666,10.98021 12.779375,12.64708 11.27125,3.04271 56.462078,3.04271 56.462078,3.04271 0,0 45.19083,0 56.46208,-3.04271 6.21771,-1.66687 11.1125,-6.40291 12.77938,-12.64708 3.01625,-11.35062 3.01625,-35.004365 3.01625,-35.004365 0,0 0,-23.653754 -3.01625,-35.004384 z M 90.004285,106.32705 V 63.358725 l 37.756045,21.48417 z"
       id="path222"
       style="fill:#ff2a2a;stroke-width:0.264583"
       inkscape:export-filename="5.svg"
       inkscape:export-xdpi="96"
       inkscape:export-ydpi="96" /><g
       inkscape:label=""
       transform="matrix(12.438439,0,0,12.438439,95.409228,69.267961)"
       id="g735"><g
   id="g733"
   transform="matrix(0.352778,0,0,0.352778,-0.198437,0.110904)">
    <g
   clip-path="url(#clipPath5812)"
   clip-rule="nonzero"
   id="g731">
      <g
   style="fill:#000000;fill-opacity:1"
   id="g729">
        <g
   id="g727"
   transform="translate(0,6.4200001)">
          <path
   style="stroke:none"
   d="m 4.75,-6.078125 c 0.078125,-0.109375 0.078125,-0.125 0.078125,-0.34375 H 2.40625 c -1.203125,0 -1.234375,-0.125 -1.265625,-0.3125 h -0.25 L 0.5625,-4.6875 h 0.25 c 0.03125,-0.15625 0.109375,-0.78125 0.25,-0.90625 0.0625,-0.0625 0.84375,-0.0625 0.96875,-0.0625 h 2.0625 C 3.984375,-5.5 3.203125,-4.40625 2.984375,-4.078125 2.078125,-2.734375 1.75,-1.34375 1.75,-0.328125 c 0,0.09375 0,0.546875 0.46875,0.546875 0.453125,0 0.453125,-0.453125 0.453125,-0.546875 V -0.84375 c 0,-0.546875 0.03125,-1.09375 0.109375,-1.625 0.046875,-0.234375 0.171875,-1.09375 0.625,-1.703125 z m 0,0"
   id="path725" />
        </g>
      </g>
    </g>
  </g>
</g></g></svg>
